<?xml version="1.0" encoding="UTF-8"?>
<svg id="b" data-name="Camada 2" xmlns="http://www.w3.org/2000/svg" viewBox="0 0 1078.38 295">
  <g id="c" data-name="Camada 1">
    <g>
      <polygon points="445.71 160.5 404.81 65.59 356.45 65.59 356.45 226.04 388.54 226.04 388.54 123.44 388.08 101.75 430.57 198.92 460.4 198.92 501.98 103.33 501.75 123.44 501.75 226.04 533.84 226.04 533.84 65.59 487.06 65.59 445.71 160.5" style="fill: #fff; stroke-width: 0px;"/>
      <path d="M572.71,59.72c-5.58,0-10.13,1.69-13.67,5.08-3.54,3.39-5.31,7.65-5.31,12.77s1.77,9.38,5.31,12.77c3.54,3.39,8.1,5.08,13.67,5.08s9.9-1.7,13.45-5.08c3.54-3.39,5.31-7.64,5.31-12.77s-1.77-9.38-5.31-12.77c-3.54-3.39-8.02-5.08-13.45-5.08Z" style="fill: #fff; stroke-width: 0px;"/>
      <rect x="556.67" y="113.5" width="32.09" height="112.54" style="fill: #fff; stroke-width: 0px;"/>
      <path d="M667.39,158.7l-9.72-2.26c-6.48-1.5-11.19-2.79-14.12-3.84-2.94-1.05-4.9-2.11-5.88-3.16-.98-1.05-1.47-2.49-1.47-4.29,0-2.56,1.54-4.75,4.63-6.55,3.09-1.81,7.57-2.71,13.45-2.71,7.68,0,15.1,1.51,22.26,4.52,7.15,3.02,12.16,6.33,15.03,9.94v-29.83c-3.77-2.71-9.23-5.16-16.38-7.34-7.16-2.18-14.73-3.28-22.71-3.28-9.34,0-17.55,1.73-24.63,5.2-7.08,3.47-12.54,8.02-16.38,13.67-3.84,5.65-5.76,11.64-5.76,17.97,0,9.04,3.09,16.27,9.26,21.69,6.18,5.42,14.39,9.19,24.63,11.3l9.49,2.03c8.43,1.81,13.97,3.65,16.61,5.54,2.63,1.89,3.95,4.11,3.95,6.67,0,3.02-1.47,5.35-4.41,7.01-2.94,1.66-7.27,2.49-12.99,2.49-9.04,0-17.66-1.92-25.87-5.76-8.21-3.84-14.8-8.77-19.77-14.8v31.64c4.97,4.37,11.45,7.95,19.43,10.73,7.98,2.79,16.87,4.18,26.67,4.18s17.97-1.77,24.97-5.31c7.01-3.54,12.32-8.14,15.93-13.79,3.62-5.65,5.42-11.56,5.42-17.74,0-9.19-2.79-16.57-8.36-22.15-5.57-5.57-13.33-9.49-23.27-11.75Z" style="fill: #fff; stroke-width: 0px;"/>
      <path d="M759.02,198.7c-2.64-2.71-3.95-7.15-3.95-13.33v-46.32h27.57v-25.54h-27.57v-31.18h-.23l-52.88,41.58v15.14h21.02v51.07c0,12.96,3.39,22.71,10.17,29.26,6.78,6.55,15.89,9.83,27.34,9.83,4.67,0,8.89-.6,12.65-1.81,3.76-1.21,6.63-2.71,8.59-4.52l4.97-25.99c-4.82,3.92-10.25,5.88-16.27,5.88-4.97,0-8.78-1.36-11.41-4.07Z" style="fill: #fff; stroke-width: 0px;"/>
      <path d="M816.08,59.72c-5.58,0-10.13,1.69-13.67,5.08-3.54,3.39-5.31,7.65-5.31,12.77s1.77,9.38,5.31,12.77c3.54,3.39,8.1,5.08,13.67,5.08s9.9-1.7,13.45-5.08c3.54-3.39,5.31-7.64,5.31-12.77s-1.77-9.38-5.31-12.77c-3.54-3.39-8.02-5.08-13.45-5.08Z" style="fill: #fff; stroke-width: 0px;"/>
      <rect x="800.03" y="113.5" width="32.09" height="112.54" style="fill: #fff; stroke-width: 0px;"/>
      <path d="M978.55,184.91l-29.6-71.41h-52.43v-8.59c0-5.27,1.36-9.41,4.07-12.43,2.71-3.01,6.7-4.52,11.98-4.52,3.16,0,6.18.53,9.04,1.58,2.86,1.06,5.2,2.19,7.01,3.39l-3.84-25.54c-2.41-1.36-5.65-2.63-9.72-3.84-4.07-1.2-8.36-1.81-12.88-1.81-11.6,0-20.75,3.81-27.46,11.41-6.71,7.61-10.06,17.44-10.06,29.49v10.85h-18.76v25.54h18.76v87h31.86v-87h28.7l36.16,78.41-23.95,52.43h34.58l68.47-156.38h-32.09l-29.83,71.41Z" style="fill: #fff; stroke-width: 0px;"/>
      <path d="M1076.23,122.16c-1.44-2.49-3.44-4.43-5.99-5.84-2.55-1.4-5.4-2.1-8.58-2.1s-6.03.71-8.58,2.1c-2.56,1.41-4.55,3.35-5.99,5.84-1.43,2.49-2.16,5.3-2.16,8.43s.72,5.89,2.16,8.38c1.44,2.49,3.44,4.43,5.99,5.84,2.55,1.41,5.4,2.1,8.58,2.1s6.04-.71,8.58-2.1c2.56-1.4,4.55-3.35,5.99-5.84,1.43-2.49,2.16-5.27,2.16-8.38s-.72-5.95-2.16-8.43ZM1073.6,137.6h0c-1.17,2.05-2.79,3.65-4.87,4.82-2.08,1.15-4.44,1.74-7.06,1.74s-5.05-.58-7.13-1.74c-2.07-1.15-3.69-2.77-4.85-4.84-1.15-2.05-1.72-4.39-1.72-6.99s.57-4.93,1.72-6.97c1.15-2.04,2.78-3.64,4.85-4.79,2.08-1.15,4.46-1.74,7.13-1.74s4.98.58,7.06,1.74c2.08,1.15,3.7,2.77,4.87,4.83,1.17,2.06,1.75,4.39,1.75,6.99s-.58,4.88-1.75,6.94Z" style="fill: #fff; stroke-width: 0px;"/>
      <path d="M1067.35,130.27h0c1.11-.8,1.66-1.89,1.66-3.23s-.54-2.49-1.63-3.3c-1.09-.81-2.66-1.22-4.72-1.22h-7.28v15.21h3.52v-6.04h1.91l4.64,6.04h4.31l-5.06-6.41c1.07-.2,1.98-.54,2.66-1.05ZM1062.09,128.95h0s-3.2-.01-3.2-.01v-3.72h3.33c.98,0,1.75.15,2.28.46.53.31.81.79.81,1.44,0,.61-.29,1.07-.83,1.37-.56.31-1.34.46-2.38.46Z" style="fill: #fff; stroke-width: 0px;"/>
      <path d="M135.01.54C53.84,7.43-6.35,78.83.54,159.99c6.89,81.17,78.28,141.37,159.45,134.48,81.17-6.9,141.38-78.29,134.48-159.45C287.57,53.85,216.18-6.37,135.01.54ZM114.11,147.04c-.38,24.86-5.36,49.01-14.81,71.81-1.87,4.49-7.01,6.62-11.51,4.77h0c-3.44-1.43-5.49-4.78-5.44-8.29.02-1.07.23-2.18.67-3.23,8.59-20.72,13.12-42.7,13.47-65.32.35-22.62-3.52-44.73-11.48-65.71-1.72-4.55.56-9.63,5.11-11.36,4.55-1.72,9.64.56,11.36,5.11,8.75,23.06,13,47.37,12.62,72.22ZM159.8,147.74c-.44,28.87-5.93,57.07-16.34,83.78-2.29,5.9-8.92,8.81-14.82,6.51h-.01c-5.88-2.29-8.81-8.94-6.51-14.82,9.41-24.16,14.38-49.68,14.78-75.83.4-26.15-3.8-51.79-12.47-76.23-.47-1.33-.69-2.67-.66-4.01.07-4.64,2.98-8.97,7.63-10.61,5.96-2.12,12.5,1,14.62,6.96,9.59,27.02,14.23,55.36,13.8,84.25ZM210.82,148.52c-.5,33.36-6.61,66.03-18.14,97.11-2.7,7.29-10.81,11.01-18.1,8.31h.01c-5.76-2.13-9.28-7.63-9.19-13.43.02-1.57.31-3.14.88-4.69,10.42-28.07,15.92-57.59,16.38-87.74.45-30.15-4.16-59.83-13.71-88.2-2.49-7.38,1.49-15.36,8.85-17.85,7.38-2.49,15.36,1.49,17.85,8.85,10.57,31.42,15.67,64.26,15.17,97.62Z" style="fill: #fff; stroke-width: 0px;"/>
    </g>
  </g>
</svg>