<svg xmlns="http://www.w3.org/2000/svg" width="128" height="35" viewBox="0 0 128 35" fill="none">
  <path d="M18.2333 0.0140714C8.57536 -0.369813 0.435416 7.14792 0.0531311 16.8058C-0.330753 26.4637 7.18858 34.602 16.8449 34.9859C26.5028 35.3698 34.6411 27.8521 35.025 18.1942C35.4073 8.5363 27.8895 0.396356 18.2333 0.0140714ZM25.6198 25.6495C25.4023 26.0334 24.9784 26.2254 24.5657 26.1678C24.4394 26.1502 24.313 26.1086 24.1947 26.0414C21.8818 24.725 19.3609 23.8677 16.7025 23.4934C14.0441 23.1191 11.3841 23.2487 8.7977 23.8773C8.23626 24.0132 7.67163 23.6693 7.53568 23.1079C7.39972 22.5465 7.74361 21.9818 8.30504 21.8459C11.149 21.1549 14.0729 21.0125 16.9936 21.4236C19.9143 21.8347 22.6847 22.7768 25.2295 24.2244C25.7302 24.5107 25.9061 25.1473 25.6214 25.6495H25.6198ZM27.9199 21.0557C27.5632 21.7147 26.7379 21.9611 26.0789 21.6044C23.3725 20.1408 20.4422 19.1795 17.3695 18.7476C14.2968 18.3158 11.2162 18.4325 8.21067 19.0931C8.04752 19.1283 7.88597 19.1347 7.72922 19.1123C7.18378 19.0355 6.71672 18.6293 6.59196 18.0582C6.43041 17.3257 6.89427 16.6011 7.62685 16.4395C10.949 15.7085 14.3544 15.579 17.7486 16.0556C21.1412 16.5323 24.3802 17.5944 27.3713 19.2131C28.0319 19.5698 28.2766 20.3935 27.9199 21.0541V21.0557ZM30.4696 15.8781C30.1337 16.5243 29.4347 16.8586 28.7533 16.7626C28.5693 16.737 28.3886 16.6794 28.2142 16.5899C25.0632 14.9504 21.669 13.8675 18.1261 13.37C14.5832 12.8726 11.021 12.9782 7.54047 13.6851C6.63515 13.8691 5.75381 13.2837 5.56987 12.3799C5.38592 11.4746 5.97135 10.5933 6.87508 10.4093C10.7299 9.62717 14.6711 9.51041 18.5915 10.0606C22.512 10.6109 26.2676 11.8105 29.7578 13.626C30.5767 14.0514 30.895 15.0607 30.4696 15.8797V15.8781Z" fill="white"/>
  <path d="M49.108 26.6464C46.0897 26.6464 43.4985 25.6019 42.4156 24.415C42.3132 24.2983 42.2988 24.2343 42.2988 24.0919V20.5586C42.2988 20.3906 42.4412 20.3267 42.5563 20.469C43.8584 22.0941 46.6319 23.4217 48.9016 23.4217C50.7075 23.4217 51.9199 22.9323 51.9199 21.3328C51.9199 20.3779 51.4689 19.7588 49.0056 19.0631L47.5868 18.6632C44.2982 17.7355 42.2988 16.6382 42.2988 13.4919C42.2988 10.7072 44.8772 8.25671 49.1847 8.25671C51.2993 8.25671 53.4011 8.91411 54.6135 9.81784C54.7159 9.89461 54.7559 9.97299 54.7559 10.1137V13.3256C54.7559 13.5447 54.5751 13.6087 54.4072 13.4679C53.4267 12.6554 51.5312 11.5597 49.2871 11.5597C47.043 11.5597 45.9857 12.5658 45.9857 13.4935C45.9857 14.474 46.6687 14.7444 49.1064 15.4673L50.3188 15.8288C54.0713 16.9501 55.6068 18.524 55.6068 21.1296C55.6068 24.4822 52.8221 26.6496 49.108 26.6496V26.6464ZM75.4024 19.914C75.4024 17.8634 76.8212 16.3423 78.8206 16.3423C80.82 16.3423 82.2244 17.8634 82.2244 19.914C82.2244 21.9646 80.8056 23.4857 78.8206 23.4857C76.8356 23.4857 75.4024 21.9646 75.4024 19.914ZM78.8062 26.6464C82.9714 26.6464 85.8729 23.6681 85.8729 19.914C85.8729 16.1599 82.9714 13.1816 78.8062 13.1816C74.6411 13.1816 71.7523 16.1343 71.7523 19.914C71.7523 23.6937 74.6283 26.6464 78.8062 26.6464ZM103.954 12.4091V13.4919H101.761C101.644 13.4919 101.58 13.5559 101.58 13.6727V16.2511C101.58 16.3679 101.644 16.4318 101.761 16.4318H103.954V26.1553C103.954 26.2721 104.018 26.3361 104.135 26.3361H107.436C107.553 26.3361 107.617 26.2721 107.617 26.1553V16.4318H110.441L114.543 25.3428L112.337 30.1909C112.273 30.3333 112.35 30.3972 112.479 30.3972H116C116.117 30.3972 116.168 30.3716 116.219 30.2549L123.505 13.6967C123.556 13.5799 123.492 13.4903 123.362 13.4903H120.061C119.944 13.4903 119.893 13.5159 119.842 13.6327L116.515 21.6287L113.175 13.6327C113.124 13.5159 113.073 13.4903 112.956 13.4903H107.617V12.6394C107.617 11.2462 108.559 10.6016 109.77 10.6016C110.491 10.6016 111.278 10.9759 111.833 11.3102C111.963 11.387 112.052 11.2974 112.001 11.1806L110.84 8.40866C110.801 8.31909 110.75 8.26631 110.659 8.21512C110.091 7.91921 109.163 7.66009 108.26 7.66009C105.526 7.66009 103.952 9.74906 103.952 12.4059L103.954 12.4091ZM65.0856 26.568C68.387 26.568 70.759 23.7176 70.759 19.8884C70.759 16.0592 68.3598 13.26 65.0584 13.26C62.6079 13.26 61.1891 14.7555 60.3638 16.2511V13.6727C60.3638 13.5559 60.2998 13.4919 60.183 13.4919H56.9456C56.8288 13.4919 56.7649 13.5559 56.7649 13.6727V30.2181C56.7649 30.3349 56.8288 30.3988 56.9456 30.3988H60.183C60.2998 30.3988 60.3638 30.3349 60.3638 30.2181V23.6025C61.1891 25.098 62.5823 26.568 65.084 26.568H65.0856ZM92.6308 26.5168C93.7137 26.5168 94.7582 26.2337 95.3772 25.8722C95.4668 25.821 95.4796 25.7698 95.4796 25.6787V23.2282C95.4796 23.0986 95.4156 23.0602 95.2988 23.1258C94.9246 23.3322 94.4351 23.5001 93.7649 23.5001C92.7076 23.5001 92.0374 22.8811 92.0374 21.5135V16.4318H95.2621C95.3788 16.4318 95.4428 16.3679 95.4428 16.2511V13.6727C95.4428 13.5559 95.3788 13.4919 95.2621 13.4919H92.0374V10.1265C92.0374 9.98419 91.9478 9.90741 91.8183 10.0098L86.0536 14.5492C85.9769 14.6132 85.9513 14.6788 85.9513 14.7811V16.2511C85.9513 16.3679 86.0152 16.4318 86.132 16.4318H88.3761V22.0541C88.3761 25.098 90.1292 26.5168 92.6324 26.5168H92.6308ZM96.3577 9.67548C96.3577 10.8367 97.2598 11.7133 98.4979 11.7133C99.7359 11.7133 100.664 10.8367 100.664 9.67548C100.664 8.51423 99.7615 7.6377 98.4979 7.6377C97.2343 7.6377 96.3577 8.51423 96.3577 9.67548ZM96.8616 26.3361H100.163C100.28 26.3361 100.344 26.2721 100.344 26.1553V13.6727C100.344 13.5559 100.28 13.4919 100.163 13.4919H96.8616C96.7448 13.4919 96.6808 13.5559 96.6808 13.6727V26.1553C96.6808 26.2721 96.7448 26.3361 96.8616 26.3361ZM60.2886 19.8628C60.882 17.8762 62.248 16.3551 64.105 16.3551C65.9621 16.3551 67.0961 17.6955 67.0961 19.8884C67.0961 22.0813 65.8709 23.4473 64.105 23.4473C62.3392 23.4473 60.8804 21.7454 60.2886 19.8628Z" fill="white"/>
  <path d="M127.734 14.2502C127.564 13.9575 127.329 13.7287 127.028 13.5624C126.728 13.3976 126.392 13.3145 126.017 13.3145C125.643 13.3145 125.307 13.3976 125.007 13.5624C124.706 13.7287 124.471 13.9575 124.301 14.2502C124.132 14.5429 124.047 14.874 124.047 15.2435C124.047 15.613 124.132 15.9377 124.301 16.2304C124.471 16.5231 124.706 16.7518 125.007 16.9182C125.307 17.0845 125.643 17.1661 126.017 17.1661C126.392 17.1661 126.728 17.0829 127.028 16.9182C127.329 16.7534 127.564 16.5231 127.734 16.2304C127.903 15.9377 127.988 15.6098 127.988 15.2435C127.988 14.8772 127.903 14.5429 127.734 14.2502ZM127.425 16.0672C127.287 16.3103 127.096 16.4991 126.851 16.6367C126.606 16.7726 126.328 16.8414 126.019 16.8414C125.71 16.8414 125.424 16.7726 125.179 16.6367C124.935 16.5007 124.744 16.3103 124.608 16.0672C124.472 15.8257 124.405 15.5506 124.405 15.2435C124.405 14.9364 124.472 14.6628 124.608 14.4229C124.744 14.183 124.935 13.9942 125.179 13.8583C125.424 13.7223 125.704 13.6536 126.019 13.6536C126.334 13.6536 126.606 13.7223 126.851 13.8583C127.096 13.9942 127.287 14.1846 127.425 14.4277C127.563 14.6708 127.631 14.9444 127.631 15.2515C127.631 15.5586 127.563 15.8257 127.425 16.0688V16.0672Z" fill="white"/>
  <path d="M126.687 15.2069C126.818 15.1109 126.883 14.983 126.883 14.8246C126.883 14.6663 126.819 14.5319 126.691 14.4359C126.563 14.34 126.378 14.292 126.135 14.292H125.277V16.0835H125.692V15.3717H125.917L126.463 16.0835H126.971L126.375 15.3285C126.501 15.3045 126.608 15.2645 126.688 15.2053L126.687 15.2069ZM126.069 15.0486H125.692V14.6103H126.084C126.2 14.6103 126.29 14.6279 126.352 14.6647C126.415 14.7015 126.447 14.7575 126.447 14.8342C126.447 14.9062 126.413 14.9606 126.349 14.9958C126.283 15.0326 126.191 15.0502 126.069 15.0502V15.0486Z" fill="white"/>
</svg>